<svg width="260" height="128" viewBox="0 0 260 128" fill="none" xmlns="http://www.w3.org/2000/svg">
<path d="M18.1001 95.0001V28.8H26.8001L50.5001 60.2001L73.8001 28.8H82.5001V95.0001H75.0001V40.2001L50.5001 71.7001L25.6001 40.2001V95.0001H18.1001Z" fill="url(#paint0_linear_4_17)"/>
<path d="M89.8751 95.0001V42.5001H95.5001V63.3501C96.8501 61.5501 98.5001 60.0251 100.45 58.7751C102.4 57.5251 104.9 56.9001 107.95 56.9001C110.55 56.9001 112.975 57.5251 115.225 58.7751C117.525 59.9751 119.375 61.8001 120.775 64.2501C122.225 66.6501 122.95 69.6251 122.95 73.1751V95.0001H117.325V73.3251C117.325 69.9251 116.35 67.2001 114.4 65.1501C112.45 63.0501 109.925 62.0001 106.825 62.0001C104.725 62.0001 102.825 62.4751 101.125 63.4251C99.4251 64.3751 98.0501 65.7251 97.0001 67.4751C96.0001 69.1751 95.5001 71.1501 95.5001 73.4001V95.0001H89.8751Z" fill="url(#paint1_linear_4_17)"/>
<path fill-rule="evenodd" clip-rule="evenodd" d="M148.181 95.6001C144.531 95.6001 141.331 94.7501 138.581 93.0501C135.881 91.3001 133.781 88.9501 132.281 86.0001C130.781 83.0501 130.031 79.8001 130.031 76.2501C130.031 72.6501 130.781 69.4001 132.281 66.5001C133.781 63.5501 135.881 61.2251 138.581 59.5251C141.331 57.7751 144.531 56.9001 148.181 56.9001C151.281 56.9001 153.931 57.5001 156.131 58.7001C158.381 59.9001 160.206 61.5251 161.606 63.5751V57.5001H167.231V95.0001H161.606V89.0001C160.206 91.0001 158.381 92.6001 156.131 93.8001C153.931 95.0001 151.281 95.6001 148.181 95.6001ZM148.931 90.5001C151.731 90.5001 154.081 89.8501 155.981 88.5501C157.931 87.2501 159.406 85.5251 160.406 83.3751C161.406 81.1751 161.906 78.8001 161.906 76.2501C161.906 73.6501 161.406 71.2751 160.406 69.1251C159.406 66.9751 157.931 65.2501 155.981 63.9501C154.081 62.6501 151.731 62.0001 148.931 62.0001C146.181 62.0001 143.806 62.6501 141.806 63.9501C139.806 65.2501 138.281 66.9751 137.231 69.1251C136.181 71.2751 135.656 73.6501 135.656 76.2501C135.656 78.8001 136.181 81.1751 137.231 83.3751C138.281 85.5251 139.806 87.2501 141.806 88.5501C143.806 89.8501 146.181 90.5001 148.931 90.5001Z" fill="url(#paint2_linear_4_17)"/>
<path d="M176.96 57.5001H182.585V66.7251C182.785 66.0751 183.16 65.2251 183.71 64.1751C184.31 63.0751 185.16 61.9751 186.26 60.8751C187.36 59.7751 188.735 58.8501 190.385 58.1001C192.085 57.3001 194.085 56.9001 196.385 56.9001H196.76V62.5251H196.085C193.285 62.5251 190.86 63.3001 188.81 64.8501C186.81 66.3501 185.26 68.3251 184.16 70.7751C183.11 73.1751 182.585 75.7501 182.585 78.5001V95.0001H176.96V57.5001Z" fill="url(#paint3_linear_4_17)"/>
<path d="M202.815 95.0001V42.5001H208.44V76.1001L226.515 57.5001H234.39L219.315 72.2751L235.515 95.0001H228.615L215.49 76.1751L208.44 83.1501V95.0001H202.815Z" fill="url(#paint4_linear_4_17)"/>
<path d="M242 95.0001C243.105 95.0001 244 94.1046 244 93.0001C244 91.8955 243.105 91.0001 242 91.0001C240.896 91.0001 240 91.8955 240 93.0001C240 94.1046 240.896 95.0001 242 95.0001Z" fill="url(#paint5_linear_4_17)"/>
<defs>
<linearGradient id="paint0_linear_4_17" x1="131.05" y1="28.8" x2="131.05" y2="95.6001" gradientUnits="userSpaceOnUse">
<stop stop-color="#374151"/>
<stop offset="0.505208" stop-color="#111827"/>
<stop offset="1"/>
</linearGradient>
<linearGradient id="paint1_linear_4_17" x1="131.05" y1="28.8" x2="131.05" y2="95.6001" gradientUnits="userSpaceOnUse">
<stop stop-color="#374151"/>
<stop offset="0.505208" stop-color="#111827"/>
<stop offset="1"/>
</linearGradient>
<linearGradient id="paint2_linear_4_17" x1="131.05" y1="28.8" x2="131.05" y2="95.6001" gradientUnits="userSpaceOnUse">
<stop stop-color="#374151"/>
<stop offset="0.505208" stop-color="#111827"/>
<stop offset="1"/>
</linearGradient>
<linearGradient id="paint3_linear_4_17" x1="131.05" y1="28.8" x2="131.05" y2="95.6001" gradientUnits="userSpaceOnUse">
<stop stop-color="#374151"/>
<stop offset="0.505208" stop-color="#111827"/>
<stop offset="1"/>
</linearGradient>
<linearGradient id="paint4_linear_4_17" x1="131.05" y1="28.8" x2="131.05" y2="95.6001" gradientUnits="userSpaceOnUse">
<stop stop-color="#374151"/>
<stop offset="0.505208" stop-color="#111827"/>
<stop offset="1"/>
</linearGradient>
<linearGradient id="paint5_linear_4_17" x1="131.05" y1="28.8" x2="131.05" y2="95.6001" gradientUnits="userSpaceOnUse">
<stop stop-color="#374151"/>
<stop offset="0.505208" stop-color="#111827"/>
<stop offset="1"/>
</linearGradient>
</defs>
</svg>
